<?xml version="1.0" encoding="iso-8859-1"?>
<!-- Generator: Adobe Illustrator 19.0.0, SVG Export Plug-In . SVG Version: 6.00 Build 0)  -->
<svg version="1.1" id="Capa_1" xmlns="http://www.w3.org/2000/svg" xmlns:xlink="http://www.w3.org/1999/xlink" x="0px" y="0px"
	 viewBox="0 0 512 512" style="enable-background:new 0 0 512 512;" xml:space="preserve">
<g>
	<g>
		<path d="M511.996,376.93c-0.013-2.678-0.757-5.35-2.134-7.647l-90-150C417.151,214.765,412.269,212,407,212h-84.787l64.394-64.394
			C396.014,138.199,389.355,122,376,122h-60V15c0-8.284-6.716-15-15-15h-90c-8.284,0-15,6.716-15,15v107h-60
			c-13.304,0-20.05,16.163-10.606,25.606L189.787,212H105c-5.269,0-10.151,2.765-12.862,7.283l-90,150C0.75,371.597,0,374.301,0,377
			v90c0,24.813,20.187,45,45,45h422c24.813,0,45-20.187,45-45v-90C512,376.977,511.997,376.954,511.996,376.93z M172.213,152H211
			c8.284,0,15-6.716,15-15V30h60v107c0,8.284,6.716,15,15,15h38.787L256,235.787L172.213,152z M113.493,242h106.294l25.606,25.606
			c5.857,5.858,15.356,5.858,21.213,0L292.213,242h106.294l72,120H41.493L113.493,242z M482,467c0,8.271-6.729,15-15,15H45
			c-8.271,0-15-6.729-15-15v-75h452V467z"/>
	</g>
</g>
<g>
	<g>
		<circle cx="437" cy="437" r="15"/>
	</g>
</g>
<g>
	<g>
		<path d="M225,422H75c-8.284,0-15,6.716-15,15s6.716,15,15,15h150c8.284,0,15-6.716,15-15S233.284,422,225,422z"/>
	</g>
</g>
<g>
</g>
<g>
</g>
<g>
</g>
<g>
</g>
<g>
</g>
<g>
</g>
<g>
</g>
<g>
</g>
<g>
</g>
<g>
</g>
<g>
</g>
<g>
</g>
<g>
</g>
<g>
</g>
<g>
</g>
</svg>
